# xmcd
#
# Track frame offsets: 
#        150
#        20060
#        42958
#        57873
#        69823
#        87075
#        100105
#        121550
#        146723
#        162543
#        175780
#        192448
#        203563
#        216918
#        229273
#        244443
#        263373
#        278073
#        294243
#        307320
#
# Disc length: 4280 seconds
#
# Revision: 6
# Processed by: cddbd v1.5.2PL0 Copyright (c) Steve Scherf et al.
# Submitted via: ExactAudioCopyFreeDBPlugin 1.0
#
DISCID=1f10b614
DTITLE=Various Artist - The Complete Stax-Volt Singles, 1959-1975
DYEAR=1994
DGENRE=Soul
TTITLE0=Isaac Hayes and David Porter - Ain't That Loving You (For More
TTITLE0=Reasons Than One)
TTITLE1=Little Milton - Walking the Back Streets and Crying
TTITLE2=William Bell - Save Us
TTITLE3=Rufus Thomas - 6-3-8
TTITLE4=Mel and Tim - Starting All Over Again
TTITLE5=Stefan - Keep on Loving Me
TTITLE6=David Porter - I'm Afraid the Masquerade is Over
TTITLE7=Little Sonny - Goin' Down Slow (Parts 1 and 2)
TTITLE8=The Emotions - I Could Never Be Happy
TTITLE9=The Soul Children - Don't Take My Kindness for Weakness
TTITLE10=Albert King - I'll Play the Blues for You (Part 1)
TTITLE11=Roger Hatcher - I Dedicate My Life to You
TTITLE12=March Wind - Do the Sweetback
TTITLE13=Black Nasty - Gettin' Funky 'Round Here
TTITLE14=David Porter - When the Chips Are Down
TTITLE15=Carla Thomas - Sugar
TTITLE16=Eddie Floyd - You're Good Enough (To Be My Baby)
TTITLE17=The Staple Singers - This World
TTITLE18=Jean Knight - Helping Man
TTITLE19=John KaSandra - Ain't I Good?
EXTD=
EXTT0=
EXTT1=
EXTT2=
EXTT3=
EXTT4=
EXTT5=
EXTT6=
EXTT7=
EXTT8=
EXTT9=
EXTT10=
EXTT11=
EXTT12=
EXTT13=
EXTT14=
EXTT15=
EXTT16=
EXTT17=
EXTT18=
EXTT19=
PLAYORDER=
